JK_SCALED_curve6_kinematics.mot
nRows=18
nColumns=34
inDegrees=yes
endheader
time	pelvis_rotation	pelvis_obliquity	pelvis_tilt	pelvis_tx	pelvis_ty	pelvis_tz	hip_flexion_r	hip_adduction_r	hip_rotation_r	knee_angle_r	ankle_angle_r	subtalar_angle_r	mtp_angle_r	hip_flexion_l	hip_adduction_l	hip_rotation_l	knee_angle_l	ankle_angle_l	subtalar_angle_l	mtp_angle_l	lumbar_extension	lumbar_bending	lumbar_rotation	arm_flex_r	arm_add_r	arm_rot_r	elbow_flex_r	pro_sup_r	arm_flex_l	arm_add_l	arm_rot_l	elbow_flex_l	pro_sup_l
   0.00000  -83.28039  -17.43112    0.22983   -3.73431    1.01560    0.00000   17.03728    6.69519   -6.11993  -19.87210   10.02529   -2.24548   19.68352   -2.25450   -6.26676    0.13491  -58.96407  -16.94901   -6.22136   23.95446  -12.98227   12.40726   -8.53783  -16.45913  -14.28796   -0.94067   83.01270  108.74176  -20.02435  -16.19015    3.22020   82.26305  120.57220
   0.01319  -84.65177  -18.05377    1.09017   -3.73516    1.00674    0.03677   15.45819    7.44081   -6.26478  -21.49808    8.18707    0.65617   18.75128   -0.39154   -6.92636   -1.02120  -63.38461  -16.14173   -6.64736   22.49612  -13.51735   13.54115   -6.31122  -14.69995  -14.77952   -0.24101   81.65981  108.36962  -19.50188  -15.25264    3.32404   79.20608  120.31385
   0.02639  -86.27203  -19.41316    2.35913   -3.73525    1.00125    0.07239   13.84507    9.05958   -5.65917  -24.14623   11.41354    2.53853   18.43581    1.34962   -8.43641   -1.99735  -67.38525  -15.21354   -7.11280   21.09826  -14.72955   15.41347   -3.52693  -12.99163  -15.75024    0.63423   81.27963  108.01918  -18.88939  -14.02613    3.25318   76.46300  119.95115
   0.03958  -87.72520  -20.56522    3.48655   -3.73446    0.99841    0.10738   11.94054   10.45462   -4.77478  -26.01316   14.05019    3.82487   18.07937    3.45009   -9.61983   -2.40699  -70.80504  -14.16338   -7.61235   19.73507  -15.92109   16.97477   -0.82228  -11.60939  -16.96489    1.59481   82.05325  107.74698  -18.56428  -12.84487    3.02886   74.65609  119.55286
   0.05278  -88.84427  -20.96262    3.83432   -3.73332    0.99715    0.14221   10.17217   11.00150   -3.80209  -26.80889   15.87297    4.87886   17.67569    6.45411   -9.84978   -2.36655  -73.55758  -13.00659   -8.08358   18.39350  -16.26393   17.58755    1.45061  -10.78157  -18.17176    2.46456   84.02481  107.63121  -18.86445  -12.01411    2.75996   74.34158  119.19694
   0.06597  -89.56727  -20.61698    3.35832   -3.73189    0.99712    0.17717    8.59893   10.70483   -2.80465  -26.61304   17.11295    5.64978   17.27817   10.26094   -9.13380   -2.04557  -75.56671  -11.78441   -8.43710   17.05292  -15.67082   17.26412    3.21112  -10.57341  -19.18878    3.03424   87.10859  107.75115  -19.92340  -11.70311    2.53921   75.81946  118.92135
   0.07917  -89.93956  -19.63542    2.28324   -3.73010    0.99817    0.21242    7.13859    9.70237   -1.76183  -25.64766   17.82727    5.97247   16.86564   14.51788   -7.60949   -1.63995  -76.77296  -10.51683   -8.53386   15.69175  -14.38261   16.13393    4.53027  -10.88009  -19.84966    3.21664   90.90483  108.12243  -21.68957  -11.94880    2.33501   78.96094  118.70200
   0.09236  -90.00000  -18.14281    0.99186   -3.72776    1.00036    0.24793    5.56299    8.18379   -0.58277  -24.15821   17.97717    5.51431   16.33338   18.74548   -5.46782   -1.29207  -77.15094   -9.18066   -8.29180   14.33028  -12.84800   14.35511    5.46249  -11.43298  -20.10794    3.14568   94.84844  108.64888  -23.91304  -12.61628    2.01445   83.13435  118.47962
   0.10556  -89.88111  -16.34361   -0.28860   -3.72481    1.00364    0.28367    3.73520    6.36837    0.62137  -22.22855   17.54095    4.22094   15.39294   22.68873   -3.02735   -1.17677  -76.72068   -7.84824   -8.12153   12.98142  -11.32990   12.17649    6.17580  -12.01153  -20.09539    3.01759   98.45883  109.21644  -26.23361  -13.44270    1.53477   87.42794  118.22929
   0.11875  -89.65932  -14.40097   -1.44195   -3.72118    1.00790    0.31964    1.73446    4.34525    1.65017  -20.19300   16.49044    2.74847   15.04086   26.20888   -0.52053   -1.35100  -75.50371   -6.54718   -8.03034   11.64250   -9.96012    9.80536    6.77408  -12.51775  -19.90155    2.91279  101.43940  109.79892  -28.43544  -14.27744    0.92570   91.35155  117.95372
   0.13194  -89.42755  -12.33056   -2.42334   -3.71708    1.01289    0.35586   -0.32864    2.15817    2.07789  -18.34046   14.90161    1.21555   16.09738   29.24765    1.96508   -1.87614  -73.53029   -5.28159   -7.89968   10.33242   -8.77081    7.24952    7.34164  -12.91636  -19.57189    2.89015  103.62156  110.43099  -30.40065  -15.05901    0.20970   94.64619  117.70018
   0.14514  -89.20145  -10.27384   -3.19092   -3.71258    1.01851    0.39241   -2.41878   -0.03261    1.92306  -16.79532   12.75046   -0.19850   18.24539   31.71370    4.27957   -2.65694  -70.78717   -4.03181   -7.68722    9.08168   -7.79875    4.66943    7.91905  -13.21433  -19.19218    2.97611  104.94289  111.13830  -32.03963  -15.70059   -0.58009   97.14612  117.53129
   0.15833  -88.96683   -8.30692   -3.79394   -3.70776    1.02437    0.42928   -4.40042   -2.11289    1.32054  -15.71352   10.17692   -1.54803   20.96698   33.63845    6.39845   -3.57510  -67.30736   -2.76104   -7.53415    7.93814   -6.98448    2.15781    8.50619  -13.43100  -18.82936    3.18682  105.40036  111.91735  -33.30455  -16.15023   -1.41228   98.77338  117.48479
   0.17153  -88.80143   -6.51589   -4.20472   -3.70282    1.03020    0.46642   -6.15515   -3.98669    0.49091  -15.29879    7.22012   -2.89412   24.06229   34.94815    8.24727   -4.55096  -63.08356   -1.40800   -7.56903    6.96033   -6.34955   -0.19851    9.19950  -13.57777  -18.55051    3.51470  105.05920  112.73444  -34.13840  -16.36989   -2.23802   99.49424  117.57278
   0.18472  -88.81717   -5.08054   -4.30287   -3.69810    1.03581    0.50375   -7.66304   -5.49330   -0.32383  -15.71477    3.88892   -4.31202   27.56332   35.45910    9.63185   -5.43441  -58.15233    0.08873   -7.71159    6.19202   -6.01397   -2.22057   10.14167  -13.66536  -18.42946    3.93330  104.08388  113.53816  -34.52115  -16.33714   -3.01972   99.40506  117.78278
   0.19792  -88.79400   -4.26750   -4.07214   -3.69343    1.04090    0.54107   -8.88699   -6.32579   -1.08238  -17.07470    0.15567   -6.01667   31.47198   35.15620   10.43128   -5.82673  -52.74042    1.74772   -7.64837    5.64111   -6.04041   -3.56991   11.12368  -13.69036  -18.53054    4.43125  102.67499  114.26488  -34.51245  -16.03219   -3.75795   98.71258  118.07693
   0.21111  -88.60899   -3.95054   -3.51137   -3.68866    1.04525    0.57837   -9.82372   -6.63264   -1.86652  -19.41921   -3.73460   -7.88035   34.26133   34.07640   10.82763   -5.74581  -47.07985    3.55146   -7.18977    5.28473   -6.44739   -4.37495   11.97488  -13.65163  -18.79560    4.99115  100.92627  114.87131  -34.18681  -15.52083   -4.47305   97.60689  118.41010
   0.22431  -88.22908   -3.89764   -2.66424   -3.68375    1.04865    0.61569  -10.48307   -6.68922   -2.67324  -22.60443   -8.00956   -9.80976   35.79968   32.34092   11.03491   -5.44974  -41.41881    5.48489   -6.23229    5.09866   -7.18397   -4.89915   12.60927  -13.55324  -19.12190    5.58351   98.86773  115.35128  -33.60499  -14.89068   -5.17812   96.20882  118.74461
